<?xml version="1.0" encoding="UTF-8"?>
<svg width="700pt" height="700pt" version="1.1" viewBox="0 0 700 700" xmlns="http://www.w3.org/2000/svg" xmlns:xlink="http://www.w3.org/1999/xlink">
 <defs>
  <symbol id="u" overflow="visible">
   <path d="m5.625-0.34375c-0.28125 0.15625-0.58594 0.27344-0.90625 0.34375-0.3125 0.082031-0.64062 0.125-0.98438 0.125-1.0234 0-1.8281-0.28516-2.4219-0.85938-0.59375-0.57031-0.89062-1.3477-0.89062-2.3281 0-0.97656 0.29688-1.75 0.89062-2.3125 0.59375-0.57031 1.3984-0.85938 2.4219-0.85938 0.34375 0 0.67188 0.039063 0.98438 0.10938 0.32031 0.074219 0.625 0.1875 0.90625 0.34375v1.2656c-0.29297-0.19531-0.57812-0.34375-0.85938-0.4375s-0.58594-0.14062-0.90625-0.14062c-0.5625 0-1.0078 0.18359-1.3281 0.54688-0.32422 0.35547-0.48438 0.85156-0.48438 1.4844 0 0.63672 0.16016 1.1367 0.48438 1.5 0.32031 0.35547 0.76562 0.53125 1.3281 0.53125 0.32031 0 0.625-0.046875 0.90625-0.14062s0.56641-0.23828 0.85938-0.4375z"/>
  </symbol>
  <symbol id="b" overflow="visible">
   <path d="m4.125-3.3438c-0.13672-0.0625-0.26562-0.10156-0.39062-0.125-0.125-0.03125-0.25-0.046875-0.375-0.046875-0.38672 0-0.68359 0.12109-0.89062 0.35938-0.19922 0.24219-0.29688 0.58594-0.29688 1.0312v2.125h-1.4688v-4.5938h1.4688v0.75c0.1875-0.30078 0.39844-0.51953 0.64062-0.65625 0.25-0.13281 0.54688-0.20312 0.89062-0.20312h0.15625c0.0625 0 0.14453 0.011719 0.25 0.03125z"/>
  </symbol>
  <symbol id="a" overflow="visible">
   <path d="m5.2969-2.3125v0.42188h-3.4375c0.03125 0.34375 0.14844 0.60547 0.35938 0.78125 0.21875 0.16797 0.51953 0.25 0.90625 0.25 0.3125 0 0.62891-0.046875 0.95312-0.14062 0.32031-0.09375 0.65625-0.22656 1-0.40625v1.125c-0.34375 0.13672-0.69531 0.23438-1.0469 0.29688-0.34375 0.070312-0.6875 0.10938-1.0312 0.10938-0.83594 0-1.4844-0.21094-1.9531-0.64062-0.46094-0.42578-0.6875-1.0195-0.6875-1.7812 0-0.75 0.22266-1.3359 0.67188-1.7656 0.45703-0.42578 1.082-0.64062 1.875-0.64062 0.72656 0 1.3047 0.21875 1.7344 0.65625 0.4375 0.42969 0.65625 1.0078 0.65625 1.7344zm-1.5156-0.48438c0-0.28125-0.085938-0.50391-0.25-0.67188-0.15625-0.17578-0.36719-0.26562-0.625-0.26562-0.29297 0-0.52734 0.085937-0.70312 0.25-0.17969 0.15625-0.28906 0.38672-0.32812 0.6875z"/>
  </symbol>
  <symbol id="d" overflow="visible">
   <path d="m2.7656-2.0625c-0.30469 0-0.53125 0.054688-0.6875 0.15625-0.15625 0.10547-0.23438 0.25781-0.23438 0.45312 0 0.1875 0.0625 0.33594 0.1875 0.4375 0.125 0.10547 0.29688 0.15625 0.51562 0.15625 0.28125 0 0.51562-0.097656 0.70312-0.29688 0.1875-0.19531 0.28125-0.44531 0.28125-0.75v-0.15625zm2.25-0.5625v2.625h-1.4844v-0.6875c-0.19922 0.28125-0.42188 0.49219-0.67188 0.625-0.24219 0.125-0.53906 0.1875-0.89062 0.1875-0.48047 0-0.87109-0.14062-1.1719-0.42188-0.29297-0.28125-0.4375-0.64062-0.4375-1.0781 0-0.53906 0.17969-0.9375 0.54688-1.1875 0.375-0.25 0.95703-0.375 1.75-0.375h0.875v-0.125c0-0.22656-0.09375-0.39453-0.28125-0.5-0.17969-0.11328-0.46484-0.17188-0.85938-0.17188-0.3125 0-0.60547 0.03125-0.875 0.09375-0.27344 0.0625-0.52344 0.15625-0.75 0.28125v-1.1094c0.3125-0.082031 0.625-0.14062 0.9375-0.17188 0.32031-0.039063 0.64062-0.0625 0.95312-0.0625 0.83203 0 1.4297 0.16406 1.7969 0.48438 0.375 0.32422 0.5625 0.85547 0.5625 1.5938z"/>
  </symbol>
  <symbol id="c" overflow="visible">
   <path d="m2.3125-5.9062v1.3125h1.5156v1.0469h-1.5156v1.9531c0 0.21094 0.039062 0.35547 0.125 0.4375 0.082031 0.074219 0.25 0.10938 0.5 0.10938h0.76562v1.0469h-1.2656c-0.58594 0-0.99609-0.11719-1.2344-0.35938-0.24219-0.23828-0.35938-0.64844-0.35938-1.2344v-1.9531h-0.73438v-1.0469h0.73438v-1.3125z"/>
  </symbol>
  <symbol id="l" overflow="visible">
   <path d="m3.8281-3.9219v-2.4688h1.4844v6.3906h-1.4844v-0.67188c-0.19922 0.27344-0.42188 0.47656-0.67188 0.60938-0.24219 0.125-0.52344 0.1875-0.84375 0.1875-0.5625 0-1.0273-0.22266-1.3906-0.67188-0.36719-0.45703-0.54688-1.0391-0.54688-1.75 0-0.70703 0.17969-1.2852 0.54688-1.7344 0.36328-0.44531 0.82812-0.67188 1.3906-0.67188 0.32031 0 0.60156 0.0625 0.84375 0.1875 0.25 0.125 0.47266 0.32422 0.67188 0.59375zm-0.96875 2.9688c0.32031 0 0.5625-0.11328 0.71875-0.34375 0.16406-0.22656 0.25-0.5625 0.25-1s-0.085937-0.76953-0.25-1c-0.15625-0.22656-0.39844-0.34375-0.71875-0.34375-0.3125 0-0.55469 0.11719-0.71875 0.34375-0.15625 0.23047-0.23438 0.5625-0.23438 1s0.078125 0.77344 0.23438 1c0.16406 0.23047 0.40625 0.34375 0.71875 0.34375z"/>
  </symbol>
  <symbol id="k" overflow="visible">
   <path d="m3.1562-0.95312c0.3125 0 0.55078-0.11328 0.71875-0.34375 0.16406-0.22656 0.25-0.5625 0.25-1s-0.085938-0.76953-0.25-1c-0.16797-0.22656-0.40625-0.34375-0.71875-0.34375s-0.55859 0.11719-0.73438 0.34375c-0.16797 0.23047-0.25 0.5625-0.25 1s0.082031 0.77344 0.25 1c0.17578 0.23047 0.42188 0.34375 0.73438 0.34375zm-0.98438-2.9688c0.20703-0.26953 0.42969-0.46875 0.67188-0.59375 0.25-0.125 0.53516-0.1875 0.85938-0.1875 0.5625 0 1.0234 0.22656 1.3906 0.67188 0.36328 0.44922 0.54688 1.0273 0.54688 1.7344 0 0.71094-0.18359 1.293-0.54688 1.75-0.36719 0.44922-0.82812 0.67188-1.3906 0.67188-0.32422 0-0.60938-0.0625-0.85938-0.1875-0.24219-0.13281-0.46484-0.33594-0.67188-0.60938v0.67188h-1.4688v-6.3906h1.4688z"/>
  </symbol>
  <symbol id="j" overflow="visible">
   <path d="m0.10938-4.5938h1.4688l1.2344 3.1094 1.0469-3.1094h1.4688l-1.9375 5.0312c-0.1875 0.50781-0.41406 0.86328-0.67188 1.0625-0.26172 0.20703-0.60547 0.3125-1.0312 0.3125h-0.84375v-0.96875h0.45312c0.25 0 0.42969-0.042969 0.54688-0.125 0.11328-0.074219 0.20312-0.21484 0.26562-0.42188l0.046875-0.125z"/>
  </symbol>
  <symbol id="f" overflow="visible">
   <path d="m4.4219-4.4531v1.2031c-0.19922-0.13281-0.40234-0.23438-0.60938-0.29688-0.19922-0.070313-0.40625-0.10938-0.625-0.10938-0.40625 0-0.72656 0.12109-0.95312 0.35938-0.23047 0.24219-0.34375 0.57422-0.34375 1 0 0.42969 0.11328 0.76172 0.34375 1 0.22656 0.24219 0.54688 0.35938 0.95312 0.35938 0.22656 0 0.44531-0.03125 0.65625-0.09375 0.20703-0.070312 0.39844-0.17578 0.57812-0.3125v1.2031c-0.23047 0.085938-0.46484 0.14453-0.70312 0.1875-0.24219 0.050781-0.47656 0.078125-0.70312 0.078125-0.83594 0-1.4844-0.21094-1.9531-0.64062-0.46875-0.42578-0.70312-1.0195-0.70312-1.7812 0-0.75781 0.23438-1.3477 0.70312-1.7656 0.46875-0.42578 1.1172-0.64062 1.9531-0.64062 0.23828 0 0.47266 0.023437 0.70312 0.0625 0.23828 0.042969 0.47266 0.10547 0.70312 0.1875z"/>
  </symbol>
  <symbol id="i" overflow="visible">
   <path d="m0.70312-6.3906h1.4688v3.4844l1.6875-1.6875h1.7188l-2.25 2.1094 2.4219 2.4844h-1.7812l-1.7969-1.9219v1.9219h-1.4688z"/>
  </symbol>
  <symbol id="h" overflow="visible">
   <path d="m4.2969-4.4531v1.1094c-0.3125-0.125-0.61719-0.21875-0.90625-0.28125-0.29297-0.070312-0.57031-0.10938-0.82812-0.10938-0.28125 0-0.49219 0.039063-0.625 0.10938-0.13672 0.074219-0.20312 0.18359-0.20312 0.32812 0 0.11719 0.050781 0.20312 0.15625 0.26562 0.10156 0.0625 0.28516 0.10938 0.54688 0.14062l0.26562 0.03125c0.75 0.09375 1.2539 0.25 1.5156 0.46875 0.25781 0.21875 0.39062 0.5625 0.39062 1.0312 0 0.49219-0.18359 0.85938-0.54688 1.1094-0.36719 0.25-0.90234 0.375-1.6094 0.375-0.3125 0-0.63281-0.027344-0.95312-0.078125-0.32422-0.050781-0.65625-0.125-1-0.21875v-1.1094c0.28906 0.13672 0.59375 0.24219 0.90625 0.3125 0.3125 0.074219 0.625 0.10938 0.9375 0.10938 0.28906 0 0.50391-0.035156 0.64062-0.10938 0.14453-0.082031 0.21875-0.20312 0.21875-0.35938 0-0.13281-0.054687-0.23438-0.15625-0.29688-0.09375-0.0625-0.28906-0.10938-0.57812-0.14062l-0.26562-0.046875c-0.65625-0.070312-1.1172-0.21875-1.375-0.4375-0.26172-0.22656-0.39062-0.56641-0.39062-1.0156 0-0.48828 0.16406-0.84766 0.5-1.0781 0.33203-0.23828 0.84375-0.35938 1.5312-0.35938 0.26953 0 0.55078 0.023437 0.84375 0.0625 0.30078 0.042969 0.62891 0.10547 0.98438 0.1875z"/>
  </symbol>
  <symbol id="t" overflow="visible">
   <path d="m0.70312-6.3906h1.4688v6.3906h-1.4688z"/>
  </symbol>
  <symbol id="g" overflow="visible">
   <path d="m5.3281-2.7969v2.7969h-1.4844v-2.1406c0-0.39453-0.011719-0.66406-0.03125-0.8125-0.011719-0.15625-0.039062-0.26953-0.078125-0.34375-0.0625-0.09375-0.14844-0.16406-0.25-0.21875-0.09375-0.050781-0.20312-0.078125-0.32812-0.078125-0.30469 0-0.54297 0.12109-0.71875 0.35938-0.17969 0.23047-0.26562 0.55469-0.26562 0.96875v2.2656h-1.4688v-4.5938h1.4688v0.67188c0.22656-0.26953 0.46094-0.46875 0.70312-0.59375 0.25-0.125 0.52344-0.1875 0.82812-0.1875 0.53125 0 0.92969 0.16406 1.2031 0.48438 0.28125 0.32422 0.42188 0.79688 0.42188 1.4219z"/>
  </symbol>
  <symbol id="s" overflow="visible">
   <path d="m3.7344-6.3906v0.96875h-0.8125c-0.21094 0-0.35547 0.039063-0.4375 0.10938-0.085937 0.074219-0.125 0.20312-0.125 0.39062v0.32812h1.25v1.0469h-1.25v3.5469h-1.4688v-3.5469h-0.73438v-1.0469h0.73438v-0.32812c0-0.5 0.14062-0.86719 0.42188-1.1094 0.28125-0.23828 0.71094-0.35938 1.2969-0.35938z"/>
  </symbol>
  <symbol id="e" overflow="visible">
   <path d="m2.8906-3.6562c-0.32422 0-0.57422 0.12109-0.75 0.35938-0.16797 0.23047-0.25 0.5625-0.25 1s0.082031 0.77734 0.25 1.0156c0.17578 0.23047 0.42578 0.34375 0.75 0.34375 0.32031 0 0.56641-0.11328 0.73438-0.34375 0.17578-0.23828 0.26562-0.57812 0.26562-1.0156s-0.089844-0.76953-0.26562-1c-0.16797-0.23828-0.41406-0.35938-0.73438-0.35938zm0-1.0469c0.78906 0 1.4062 0.21484 1.8438 0.64062 0.44531 0.42969 0.67188 1.0156 0.67188 1.7656 0 0.76172-0.22656 1.3555-0.67188 1.7812-0.4375 0.42969-1.0547 0.64062-1.8438 0.64062-0.79297 0-1.4141-0.21094-1.8594-0.64062-0.44922-0.42578-0.67188-1.0195-0.67188-1.7812 0-0.75 0.22266-1.3359 0.67188-1.7656 0.44531-0.42578 1.0664-0.64062 1.8594-0.64062z"/>
  </symbol>
  <symbol id="r" overflow="visible">
   <path d="m4.9688-3.8281c0.1875-0.28906 0.40625-0.50781 0.65625-0.65625 0.25781-0.14453 0.53906-0.21875 0.84375-0.21875 0.53125 0 0.92969 0.16406 1.2031 0.48438 0.28125 0.32422 0.42188 0.79688 0.42188 1.4219v2.7969h-1.4844v-2.3906c0.007813-0.039063 0.015625-0.078125 0.015625-0.10938v-0.17188c0-0.32031-0.046875-0.55469-0.14062-0.70312-0.09375-0.14453-0.25-0.21875-0.46875-0.21875-0.28125 0-0.5 0.11719-0.65625 0.34375-0.14844 0.23047-0.21875 0.5625-0.21875 1v2.25h-1.4844v-2.3906c0-0.50781-0.046875-0.83594-0.14062-0.98438-0.085937-0.14453-0.23438-0.21875-0.45312-0.21875-0.28125 0-0.5 0.11719-0.65625 0.34375-0.15625 0.23047-0.23438 0.55859-0.23438 0.98438v2.2656h-1.4688v-4.5938h1.4688v0.67188c0.1875-0.25781 0.39453-0.45312 0.625-0.57812 0.22656-0.13281 0.48828-0.20312 0.78125-0.20312 0.3125 0 0.58594 0.078125 0.82812 0.23438 0.25 0.14844 0.4375 0.35938 0.5625 0.64062z"/>
  </symbol>
  <symbol id="q" overflow="visible">
   <path d="m5.3281-2.7969v2.7969h-1.4844v-2.1406c0-0.39453-0.011719-0.66406-0.03125-0.8125-0.011719-0.15625-0.039062-0.26953-0.078125-0.34375-0.0625-0.09375-0.14844-0.16406-0.25-0.21875-0.09375-0.050781-0.20312-0.078125-0.32812-0.078125-0.30469 0-0.54297 0.12109-0.71875 0.35938-0.17969 0.23047-0.26562 0.55469-0.26562 0.96875v2.2656h-1.4688v-6.3906h1.4688v2.4688c0.22656-0.26953 0.46094-0.46875 0.70312-0.59375 0.25-0.125 0.52344-0.1875 0.82812-0.1875 0.53125 0 0.92969 0.16406 1.2031 0.48438 0.28125 0.32422 0.42188 0.79688 0.42188 1.4219z"/>
  </symbol>
  <symbol id="p" overflow="visible">
   <path d="m0.76562-6.125h1.7656l2.2344 4.2031v-4.2031h1.5v6.125h-1.7656l-2.2344-4.2031v4.2031h-1.5z"/>
  </symbol>
  <symbol id="o" overflow="visible">
   <path d="m0.65625-1.7969v-2.7969h1.4844v0.45312c0 0.25-0.007813 0.5625-0.015625 0.9375v0.75c0 0.375 0.007812 0.64844 0.03125 0.8125 0.019531 0.15625 0.050781 0.27344 0.09375 0.34375 0.0625 0.09375 0.14062 0.16797 0.23438 0.21875 0.10156 0.054687 0.21875 0.078125 0.34375 0.078125 0.30078 0 0.53906-0.11328 0.71875-0.34375 0.17578-0.23828 0.26562-0.56641 0.26562-0.98438v-2.2656h1.4688v4.5938h-1.4688v-0.67188c-0.21875 0.27344-0.45312 0.47656-0.70312 0.60938-0.25 0.125-0.52734 0.1875-0.82812 0.1875-0.53125 0-0.9375-0.16016-1.2188-0.48438-0.27344-0.33203-0.40625-0.8125-0.40625-1.4375z"/>
  </symbol>
  <symbol id="n" overflow="visible">
   <path d="m0.76562-6.125h2.625c0.78125 0 1.3789 0.17188 1.7969 0.51562 0.41406 0.34375 0.625 0.83984 0.625 1.4844 0 0.63672-0.21094 1.1328-0.625 1.4844-0.41797 0.34375-1.0156 0.51562-1.7969 0.51562h-1.0312v2.125h-1.5938zm1.5938 1.1406v1.7188h0.85938c0.3125 0 0.55078-0.070313 0.71875-0.21875 0.16406-0.15625 0.25-0.36719 0.25-0.64062 0-0.28125-0.085938-0.49219-0.25-0.64062-0.16797-0.14453-0.40625-0.21875-0.71875-0.21875z"/>
  </symbol>
  <symbol id="m" overflow="visible">
   <path d="m0.70312-4.5938h1.4688v4.5156c0 0.61328-0.15234 1.082-0.45312 1.4062-0.29297 0.32031-0.71484 0.48438-1.2656 0.48438h-0.73438v-0.96875h0.25c0.28125 0 0.47266-0.0625 0.57812-0.1875 0.10156-0.125 0.15625-0.37109 0.15625-0.73438zm0-1.7969h1.4688v1.2031h-1.4688z"/>
  </symbol>
 </defs>
 <g>
  <path d="m388.4 294.11c-31.801 0.82422-63.234-4.5039-92.621-15.406-32.996-12.246-63.453-31.535-88.941-57.02-25.504-25.504-44.789-55.945-57.02-88.941-12.266-33.078-17.473-68.762-14.801-104.65 0.42188-5.5938 4.9062-9.9297 10.348-10.316 35.801-2.6719 71.484 2.5352 104.6 14.836 32.945 12.18 63.371 31.465 88.906 57.004l0.066406 0.066407c25.52 25.52 44.805 55.961 57.02 88.871l0.28516 0.90625c3.4102 9.3086 6.2656 18.816 8.5508 28.461 7.0391-16.281 16.617-31.449 29.332-44.586 15.625-16.129 34.457-28.125 54.887-35.719 20.816-7.7109 43.359-10.902 65.891-9.2227 5.4414 0.38672 9.9297 4.7227 10.348 10.316 1.6797 22.359-1.5625 44.621-9.207 65.234-7.4922 20.227-19.32 38.977-34.945 54.785l-0.60547 0.65625c-15.758 15.758-34.859 27.57-55.559 35.047-17.289 6.25-35.684 9.4922-54.148 9.5273v226.57h85.059c6.1836 0 11.207 5.0078 11.207 11.207 0 6.1836-5.0078 11.207-11.207 11.207h-192.5c-6.1836 0-11.207-5.0078-11.207-11.207 0-6.1836 5.0078-11.207 11.207-11.207h85.059v-226.4zm-84.824-36.391c27.098 10.062 56.113 14.902 85.379 13.996 0.90625-29.031-3.832-57.742-13.66-84.555l-0.33594-0.80469c-11.137-30.055-28.68-57.758-51.828-80.895-23.184-23.184-50.871-40.723-80.941-51.863-27.066-10.082-56.062-14.918-85.379-14.012-0.90625 29.281 3.9492 58.281 13.996 85.379 11.137 30.023 28.68 57.707 51.863 80.895 23.184 23.184 50.871 40.723 80.895 51.863zm108.09 13.859c15.605-0.11719 31.113-2.8906 45.664-8.1484 17.59-6.3672 33.867-16.43 47.324-29.887l0.60547-0.55469c13.254-13.406 23.352-29.449 29.785-46.84 5.4102-14.582 8.25-30.105 8.2656-45.832-15.945 0-31.734 2.8047-46.52 8.2812-17.422 6.4688-33.434 16.633-46.586 30.207-12.23 12.652-21.102 27.719-27.316 43.965-5.9453 15.523-9.4766 32.121-11.223 48.805z"/>
  <use x="70" y="585.199219" xlink:href="#u"/>
  <use x="76.164062" y="585.199219" xlink:href="#b"/>
  <use x="80.308594" y="585.199219" xlink:href="#a"/>
  <use x="86.003906" y="585.199219" xlink:href="#d"/>
  <use x="91.671875" y="585.199219" xlink:href="#c"/>
  <use x="95.6875" y="585.199219" xlink:href="#a"/>
  <use x="101.386719" y="585.199219" xlink:href="#l"/>
  <use x="110.324219" y="585.199219" xlink:href="#k"/>
  <use x="116.335938" y="585.199219" xlink:href="#j"/>
  <use x="124.734375" y="585.199219" xlink:href="#f"/>
  <use x="129.714844" y="585.199219" xlink:href="#d"/>
  <use x="135.382812" y="585.199219" xlink:href="#i"/>
  <use x="140.96875" y="585.199219" xlink:href="#h"/>
  <use x="145.96875" y="585.199219" xlink:href="#t"/>
  <use x="148.847656" y="585.199219" xlink:href="#d"/>
  <use x="154.519531" y="585.199219" xlink:href="#g"/>
  <use x="160.496094" y="585.199219" xlink:href="#i"/>
  <use x="166.085937" y="585.199219" xlink:href="#a"/>
  <use x="171.78125" y="585.199219" xlink:href="#b"/>
  <use x="175.925781" y="585.199219" xlink:href="#h"/>
  <use x="70" y="593.601562" xlink:href="#s"/>
  <use x="73.65625" y="593.601562" xlink:href="#b"/>
  <use x="77.796875" y="593.601562" xlink:href="#e"/>
  <use x="83.566406" y="593.601562" xlink:href="#r"/>
  <use x="95.246094" y="593.601562" xlink:href="#c"/>
  <use x="99.261719" y="593.601562" xlink:href="#q"/>
  <use x="105.242188" y="593.601562" xlink:href="#a"/>
  <use x="113.863281" y="593.601562" xlink:href="#p"/>
  <use x="120.894531" y="593.601562" xlink:href="#e"/>
  <use x="126.664062" y="593.601562" xlink:href="#o"/>
  <use x="132.644531" y="593.601562" xlink:href="#g"/>
  <use x="141.546875" y="593.601562" xlink:href="#n"/>
  <use x="147.703125" y="593.601562" xlink:href="#b"/>
  <use x="151.847656" y="593.601562" xlink:href="#e"/>
  <use x="157.617187" y="593.601562" xlink:href="#m"/>
  <use x="160.496094" y="593.601562" xlink:href="#a"/>
  <use x="166.195312" y="593.601562" xlink:href="#f"/>
  <use x="171.175781" y="593.601562" xlink:href="#c"/>
 </g>
</svg>
