<svg width="50" height="75" viewBox="0 0 50 75" fill="none" xmlns="http://www.w3.org/2000/svg">
<g clip-path="url(#clip0_78_604)">
<path d="M27.3703 50.7072H21.817V59.5925H27.3703V50.7072Z" fill="black"/>
<path d="M0.161509 59.4243C4.23243 58.2451 8.30555 57.63 12.3765 57.2141C14.4119 56.9508 16.4474 56.8999 18.4851 56.7428C20.5205 56.661 22.556 56.6411 24.5936 56.5946C26.6291 56.6499 28.6646 56.6588 30.7022 56.7517C32.7377 56.9043 34.7732 56.9641 36.8108 57.2252C40.8817 57.6411 44.9549 58.2539 49.0258 59.4265L49.0678 59.4398C49.1541 59.4642 49.205 59.5549 49.1807 59.6434C49.1607 59.7142 49.0966 59.7606 49.0258 59.7628C40.8817 59.9066 32.7377 59.869 24.5936 59.9288C16.4496 59.869 8.30556 59.9066 0.161509 59.7628C0.0707986 59.7606 0 59.6876 0 59.5969C0.00221245 59.5239 0.0508864 59.4619 0.11726 59.442L0.161509 59.4243Z" fill="black"/>
<path d="M6.27012 33.9014C6.36525 36.4081 6.98031 38.8684 8.06663 41.1251C8.07548 41.1428 8.08433 41.1605 8.09097 41.176C8.29009 41.5831 8.50027 41.9857 8.73036 42.3796C8.77461 42.4548 8.82108 42.53 8.86754 42.6052C8.90294 42.665 8.94055 42.7247 8.97595 42.7844C9.10206 42.988 9.22817 43.1893 9.36092 43.3862C9.41844 43.4703 9.47596 43.5522 9.5357 43.6362C9.62198 43.7601 9.70827 43.8818 9.79677 44.0035C9.87863 44.1141 9.96049 44.2247 10.0446 44.3354C10.0977 44.404 10.1508 44.4703 10.2039 44.5367C12.9562 48.028 16.9474 50.4948 21.5095 51.2714C21.5383 51.2758 21.567 51.2825 21.5958 51.2869C21.744 51.3112 21.8945 51.3334 22.0449 51.3555C22.1954 51.3776 22.3458 51.3953 22.4963 51.413C22.5958 51.4241 22.6954 51.4373 22.7949 51.4484C23.0449 51.4727 23.295 51.4904 23.5472 51.5059C23.618 51.5104 23.6866 51.5126 23.7574 51.517C24.0317 51.5303 24.306 51.5391 24.5804 51.5391C24.5826 51.5391 24.5848 51.5391 24.587 51.5391C24.5892 51.5391 24.5915 51.5391 24.5915 51.5391C24.868 51.5391 25.1424 51.5303 25.4145 51.517C25.4853 51.5148 25.5561 51.5104 25.6247 51.5059C25.8769 51.4904 26.1269 51.4727 26.3769 51.4484C26.4765 51.4396 26.576 51.4263 26.6756 51.413C26.826 51.3953 26.9765 51.3776 27.1269 51.3555C27.2774 51.3356 27.4256 51.3112 27.5761 51.2869C27.6048 51.2825 27.6336 51.2758 27.6623 51.2714C32.2244 50.4948 36.2157 48.028 38.968 44.5367C39.0211 44.4703 39.0742 44.4017 39.1273 44.3354C39.2114 44.2247 39.2932 44.1163 39.3751 44.0035C39.4636 43.8818 39.5499 43.7601 39.6361 43.6362C39.6937 43.5522 39.7534 43.4703 39.8109 43.3862C39.9437 43.1893 40.072 42.988 40.1959 42.7844C40.2335 42.7247 40.2689 42.665 40.3043 42.6052C40.3508 42.53 40.3972 42.4548 40.4415 42.3796C40.6694 41.9857 40.8818 41.5831 41.0809 41.176C41.0897 41.1583 41.0986 41.1406 41.1052 41.1229C42.1915 38.8662 42.8066 36.4037 42.9017 33.8992L42.9039 31.4058V23.8635L47.1275 22.463C47.7094 22.2706 48.0258 21.6422 47.8333 21.0581C47.6386 20.4763 47.0103 20.1599 46.4306 20.3546L40.6849 22.2595V33.2111C40.6849 35.7046 40.114 38.0675 39.0985 40.176C39.0963 40.1804 39.0941 40.187 39.0919 40.1914C38.9813 40.4193 38.8662 40.645 38.7467 40.8662C38.7379 40.8839 38.7268 40.9016 38.718 40.9193C38.6206 41.0985 38.5166 41.2755 38.4127 41.4503C38.375 41.5123 38.3374 41.5742 38.2998 41.6362C38.2091 41.7822 38.1162 41.926 38.0211 42.0698C37.9348 42.1981 37.8485 42.3242 37.76 42.4504C37.7113 42.5212 37.6604 42.592 37.6095 42.6605C37.521 42.7822 37.4325 42.9017 37.3418 43.019C37.3286 43.0344 37.3153 43.0521 37.3042 43.0676C34.8218 46.2536 31.231 48.4019 27.2862 49.0833C27.2641 49.0877 27.242 49.0921 27.2199 49.0944C27.0871 49.1165 26.9566 49.1364 26.8238 49.1541C26.6911 49.1718 26.5583 49.1895 26.4256 49.205C26.3393 49.216 26.253 49.2271 26.1667 49.2337C25.9455 49.2559 25.7242 49.2714 25.503 49.2846C25.4432 49.2891 25.3813 49.2913 25.3216 49.2935C25.0804 49.3045 24.837 49.3112 24.5915 49.3112C24.3459 49.3112 24.1025 49.3045 23.8613 49.2935C23.8016 49.2913 23.7397 49.2868 23.6799 49.2846C23.4565 49.2714 23.2352 49.2559 23.0162 49.2337C22.9299 49.2249 22.8436 49.2138 22.7573 49.205C22.6246 49.1895 22.4918 49.1718 22.3591 49.1541C22.2263 49.1342 22.0936 49.1165 21.9631 49.0944C21.9409 49.0899 21.9188 49.0855 21.8967 49.0833C17.9519 48.4041 14.3633 46.2536 11.8809 43.0698C11.8676 43.0544 11.8544 43.0367 11.8411 43.0212C11.7504 42.9039 11.6619 42.7844 11.5734 42.6628C11.5225 42.592 11.4738 42.5234 11.4229 42.4526C11.3344 42.3265 11.2459 42.2004 11.1619 42.072C11.0667 41.9282 10.9738 41.7844 10.8831 41.6384C10.8455 41.5764 10.8079 41.5145 10.7702 41.4525C10.6663 41.2778 10.5623 41.1008 10.4649 40.9216C10.4561 40.9039 10.445 40.8862 10.4362 40.8685C10.3167 40.6472 10.1994 40.4215 10.091 40.1937C10.0888 40.1892 10.0866 40.1826 10.0844 40.1782C9.06887 38.0697 8.49806 35.7068 8.49806 33.2134V22.2617L2.74346 20.3568C2.16159 20.1621 1.53325 20.4785 1.34077 21.0603C1.14828 21.6422 1.46245 22.2706 2.04654 22.4653L6.27012 23.8657V31.408V33.9014Z" fill="black"/>
<path d="M30.1447 25.1645C29.2243 25.1645 28.4787 24.4189 28.4787 23.4985C28.4787 22.5781 29.2243 21.8325 30.1447 21.8325H31.8328V18.5005H30.1447C29.2243 18.5005 28.4787 17.7549 28.4787 16.8346C28.4787 15.9142 29.2243 15.1686 30.1447 15.1686H31.8328V13.4008C31.8328 9.07327 28.5849 5.55325 24.5915 5.55325C20.598 5.55325 17.3501 9.07327 17.3501 13.4008V15.1686H19.5935C20.5139 15.1686 21.2595 15.9142 21.2595 16.8346C21.2595 17.7549 20.5139 18.5005 19.5935 18.5005H17.3501V21.8325H19.5935C20.5139 21.8325 21.2595 22.5781 21.2595 23.4985C21.2595 24.4189 20.5139 25.1645 19.5935 25.1645H17.3501V28.4964H19.5935C20.5139 28.4964 21.2595 29.242 21.2595 30.1624C21.2595 31.0828 20.5139 31.8284 19.5935 31.8284H17.3501V32.3085C17.3501 36.636 20.598 40.156 24.5915 40.156C28.5849 40.156 31.8328 36.636 31.8328 32.3085V31.8284H30.1447C29.2243 31.8284 28.4787 31.0828 28.4787 30.1624C28.4787 29.242 29.2243 28.4964 30.1447 28.4964H31.8328V25.1645H30.1447Z" fill="#29ABE2"/>
<path d="M31.8328 32.3085C31.8328 36.636 28.5849 40.1561 24.5914 40.1561C20.5979 40.1561 17.3501 36.636 17.3501 32.3085V31.8284H11.8211C11.8123 31.8284 11.8056 31.8262 11.799 31.8262V32.3085C11.799 39.6981 17.5381 45.7093 24.5936 45.7093C31.6492 45.7093 37.3883 39.6981 37.3883 32.3085V31.8284H31.835V32.3085H31.8328Z" fill="#0071BC"/>
<path d="M37.3861 25.1645H31.8328V28.4964H37.3861V25.1645Z" fill="#0071BC"/>
<path d="M37.3861 18.5005H31.8328V21.8325H37.3861V18.5005Z" fill="#0071BC"/>
<path d="M17.3501 21.8325V18.5005H11.8211C11.8123 18.5005 11.8056 18.4983 11.799 18.4983V21.8347C11.8079 21.8347 11.8145 21.8325 11.8211 21.8325H17.3501Z" fill="#0071BC"/>
<path d="M17.3501 28.4964V25.1645H11.8211C11.8123 25.1645 11.8056 25.1623 11.799 25.1623V28.4986C11.8079 28.4986 11.8145 28.4964 11.8211 28.4964H17.3501Z" fill="#0071BC"/>
<path d="M17.3501 15.1686V13.4008C17.3501 9.07328 20.5979 5.55326 24.5914 5.55326C28.5849 5.55326 31.8328 9.07328 31.8328 13.4008V15.1686H37.386V13.4008C37.386 6.01124 31.6469 0 24.5914 0C17.5359 0 11.799 6.01124 11.799 13.4008V15.173C11.8079 15.173 11.8145 15.1708 11.8211 15.1708H17.3501V15.1686Z" fill="#0071BC"/>
<path d="M9.04454 67.2255C8.99144 67.2255 8.94056 67.2166 8.88967 67.1967C8.67506 67.1126 8.57329 66.8692 8.65736 66.6546C10.6441 61.6877 12.423 60.9664 15.9695 59.5283C16.5248 59.3026 17.1289 59.0593 17.7904 58.7761C17.9983 58.6876 18.2461 58.7827 18.3368 58.9951C18.4276 59.2075 18.3302 59.4509 18.1178 59.5416C17.4541 59.827 16.8434 60.0748 16.2837 60.3005C12.7482 61.7341 11.2858 62.3271 9.43172 66.9644C9.36535 67.1259 9.21048 67.2255 9.04454 67.2255Z" fill="black"/>
<path d="M13.4871 68.3361C13.2725 68.3361 13.0933 68.1724 13.0734 67.9577C12.819 65.159 13.8389 64.0107 14.8279 62.9023C15.6509 61.9775 16.4297 61.1036 16.4297 59.1566C16.4297 58.9265 16.6155 58.7407 16.8456 58.7407C17.0757 58.7407 17.2616 58.9265 17.2616 59.1566C17.2616 61.4199 16.2991 62.4996 15.4496 63.4554C14.5402 64.4776 13.6818 65.4422 13.9031 67.8803C13.9252 68.1104 13.7548 68.3117 13.5269 68.3339C13.5114 68.3361 13.4982 68.3361 13.4871 68.3361Z" fill="black"/>
<path d="M16.8191 67.721C16.7815 67.721 16.7416 67.7166 16.704 67.7056C16.4828 67.6414 16.3567 67.4113 16.4208 67.1901C17.1178 64.7873 18.2793 63.1125 19.3059 61.6368C19.932 60.7341 20.5227 59.8823 20.9055 58.9951C20.9962 58.7827 21.2396 58.6876 21.4542 58.7761C21.6643 58.8668 21.7639 59.1124 21.6732 59.3226C21.2595 60.2872 20.6444 61.1722 19.9917 62.1103C19.0028 63.5351 17.8833 65.1502 17.2239 67.4224C17.1664 67.6038 17.0005 67.721 16.8191 67.721Z" fill="black"/>
<path d="M17.6266 71.4645C17.5691 71.4645 17.5116 71.4534 17.4562 71.4269C17.2461 71.3318 17.1531 71.0862 17.2483 70.876C18.2217 68.7211 20.0205 67.9578 21.4674 67.3427C22.2174 67.0241 22.8635 66.7498 23.2153 66.3582C24.7994 64.597 26.4609 61.4775 26.4211 59.1655C26.4167 58.9354 26.6003 58.7451 26.8304 58.7429C27.0517 58.765 27.2486 58.9221 27.253 59.1522C27.2972 61.7054 25.5649 64.9909 23.8325 66.9157C23.3569 67.4445 22.6312 67.7542 21.7904 68.1104C20.4099 68.6967 18.8412 69.3627 18.0027 71.2211C17.9363 71.3738 17.7859 71.4645 17.6266 71.4645Z" fill="black"/>
<path d="M25.7021 75C25.5915 75 25.4831 74.958 25.4012 74.8717C23.1578 72.5375 23.2927 70.9512 23.41 69.5529C23.4808 68.7166 23.5472 67.9268 23.1047 66.9843C23.0073 66.7763 23.098 66.5285 23.306 66.4312C23.514 66.3316 23.7618 66.4223 23.8591 66.6303C24.3945 67.7741 24.3171 68.7122 24.2397 69.6215C24.129 70.9623 24.0206 72.23 26.003 74.292C26.1623 74.458 26.1579 74.7212 25.9919 74.8805C25.9123 74.9602 25.8061 75 25.7021 75Z" fill="black"/>
<path d="M27.9234 71.668C27.919 71.668 27.9146 71.668 27.9101 71.668C27.68 71.6614 27.5008 71.4689 27.5075 71.2388C27.5893 68.5219 26.8747 66.0307 25.3835 63.8337C25.2552 63.6435 25.3039 63.3846 25.4941 63.2541C25.6822 63.1235 25.9433 63.1744 26.0738 63.3647C27.6668 65.7099 28.4301 68.3671 28.3416 71.2632C28.3349 71.4888 28.1491 71.668 27.9234 71.668Z" fill="black"/>
<path d="M42.384 64.1413C42.3375 64.1413 42.2889 64.1346 42.2424 64.1169C40.7048 63.5638 39.1759 62.9333 37.7002 62.3249C35.2311 61.3071 32.6802 60.2562 30.0628 59.5593C29.8416 59.4996 29.7089 59.2717 29.7686 59.0504C29.8283 58.8292 30.0584 58.6964 30.2775 58.7562C32.9479 59.4686 35.5254 60.5306 38.0166 61.5571C39.4857 62.1634 41.0057 62.7895 42.5256 63.3337C42.7424 63.4112 42.8553 63.6501 42.7756 63.8669C42.7137 64.0351 42.5544 64.1413 42.384 64.1413Z" fill="black"/>
<path d="M38.4304 67.7785C38.2246 67.7785 38.0454 67.6259 38.0166 67.4157C37.5985 64.2298 35.2356 62.2629 33.824 61.0881C33.5917 60.8956 33.386 60.723 33.2222 60.5748C33.0519 60.4199 33.0386 60.1566 33.1935 59.9863C33.3506 59.8181 33.6138 59.8049 33.782 59.9575C33.9391 60.0991 34.1338 60.2628 34.3572 60.4487C35.7643 61.6191 38.3817 63.7961 38.8441 67.3073C38.8729 67.5352 38.7136 67.7453 38.4857 67.7741C38.4658 67.7785 38.4481 67.7785 38.4304 67.7785Z" fill="black"/>
<path d="M32.8129 72.6813C32.6315 72.6813 32.4655 72.5619 32.4124 72.3782C31.7797 70.1636 31.9323 68.1215 32.0673 66.3205C32.2731 63.5572 32.4346 61.3757 29.9212 59.4885C29.7376 59.3513 29.7 59.0902 29.8371 58.9066C29.9743 58.723 30.2354 58.6854 30.419 58.8225C33.2996 60.9819 33.1027 63.6036 32.897 66.3825C32.762 68.1989 32.6204 70.0795 33.2134 72.1504C33.2753 72.3716 33.1492 72.6017 32.9279 72.6659C32.8881 72.6769 32.8505 72.6813 32.8129 72.6813Z" fill="black"/>
<path d="M13.1066 58.4066L14.2969 53.652L15.485 58.4066H13.1066Z" fill="black"/>
<path d="M19.1178 58.2296L18.224 55.3158L17.3301 58.2296H19.1178Z" fill="black"/>
<path d="M14.0226 52.3069C13.4318 52.3932 12.8942 52.5303 12.4362 52.6963C12.3898 52.8511 12.1818 53.0171 11.892 53.1034C11.7504 53.1454 11.6176 53.1542 11.5004 53.1476C11.1773 53.3688 11.0026 53.6078 11.0357 53.8313C11.122 54.4198 12.5977 54.6941 14.3323 54.4419C16.0669 54.1897 17.4054 53.5082 17.3191 52.9197C17.2328 52.3268 15.7571 52.0547 14.0226 52.3069ZM13.4783 53.8932C13.1199 53.9994 12.7858 53.9397 12.7327 53.7627C12.6796 53.5835 12.9274 53.3534 13.2858 53.2472C13.6442 53.141 13.9783 53.2007 14.0314 53.3777C14.0867 53.5569 13.8389 53.787 13.4783 53.8932ZM15.4938 52.9042C15.2903 52.964 15.1 52.9308 15.0713 52.829C15.0403 52.7272 15.1819 52.5967 15.3854 52.5348C15.589 52.475 15.7792 52.5082 15.808 52.61C15.8368 52.7117 15.6974 52.8445 15.4938 52.9042Z" fill="#0071BC"/>
<path d="M20.1378 54.7361C20.047 54.776 19.9364 54.8025 19.8081 54.8069C19.5116 54.8136 19.2683 54.7007 19.2638 54.5525C19.2616 54.4972 19.3037 54.4463 19.3634 54.4021C19.0072 54.3114 18.5758 54.2516 18.1112 54.2406C16.8678 54.2096 15.85 54.526 15.839 54.9485C15.8279 55.3711 16.8279 55.7384 18.0713 55.7716C19.3147 55.8026 20.3325 55.4862 20.3435 55.0636C20.3457 54.9463 20.2683 54.8357 20.1378 54.7361ZM16.839 55.1587C16.5801 55.1654 16.3677 55.0658 16.3633 54.9375C16.3589 54.8092 16.5669 54.6985 16.8257 54.6919C17.0846 54.6853 17.297 54.7848 17.3014 54.9131C17.3058 55.0415 17.0978 55.1521 16.839 55.1587Z" fill="#0071BC"/>
<path d="M37.1095 58.8491L34.8218 53.2848L32.5319 58.8491H37.1095Z" fill="black"/>
<path d="M29.0009 52.9175C28.8371 54.0503 31.4102 55.3645 34.751 55.849C38.0918 56.3335 40.9326 55.8092 41.0964 54.6742C41.1583 54.2428 40.822 53.787 40.2003 53.3578C39.9724 53.3711 39.718 53.3534 39.4459 53.2715C38.8883 53.1078 38.4879 52.787 38.3994 52.4905C37.5188 52.1741 36.4834 51.9086 35.3462 51.7427C32.0076 51.2582 29.1646 51.7847 29.0009 52.9175ZM35.3285 53.8069C35.4303 53.4618 36.0741 53.3489 36.7644 53.5547C37.4547 53.7582 37.9325 54.2052 37.8308 54.5481C37.729 54.891 37.0852 55.0061 36.3949 54.8003C35.7024 54.5945 35.2267 54.1498 35.3285 53.8069ZM31.9102 52.3312C31.9678 52.1365 32.3328 52.0723 32.7266 52.1874C33.1205 52.3047 33.3904 52.5569 33.3329 52.7516C33.2753 52.9463 32.9103 53.0104 32.5165 52.8954C32.1249 52.7781 31.8527 52.5259 31.9102 52.3312Z" fill="#0071BC"/>
</g>
<defs>
<clipPath id="clip0_78_604">
<rect width="49.1851" height="75" fill="white"/>
</clipPath>
</defs>
</svg>
